PathFileType	4	(X/Y/Z)	./resultDataOpenSim/trcMotMarkerGrf/sub09/qtm-12-01.trc
DataRate	CameraRate	NumFrames	NumMarkers	Units	OrigDataRate	OrigDataStartFrame	OrigNumFrames
250.000000	250.000000	10	24	m	250.000000	321	513
Frame#	Time	L.Toe.Tip			R.Toe.Tip			L.Ankle.Lat			R.Ankle.Lat			L.Ankle.Med			R.Ankle.Med			L.Heel			R.Heel			L.Knee.Lat			R.Knee.Lat			L.Knee.Med			R.Knee.Med			L.Thigh.Upper			R.Thigh.Upper			L.ASIS			R.ASIS			V.Sacral			L.Acromium			R.Acromium			C7			L.Elbow			R.Elbow			L.Wrist.Lat			R.Wrist.Lat
		X1	Y1	Z1	X2	Y2	Z2	X3	Y3	Z3	X4	Y4	Z4	X5	Y5	Z5	X6	Y6	Z6	X7	Y7	Z7	X8	Y8	Z8	X9	Y9	Z9	X10	Y10	Z10	X11	Y11	Z11	X12	Y12	Z12	X13	Y13	Z13	X14	Y14	Z14	X15	Y15	Z15	X16	Y16	Z16	X17	Y17	Z17	X18	Y18	Z18	X19	Y19	Z19	X20	Y20	Z20	X21	Y21	Z21	X22	Y22	Z22	X23	Y23	Z23	X24	Y24	Z24

321	1.28	0.17732686	0.03890619	-0.033626157	1.0292302	0.040480346	0.09341529	0.1319622	0.18423933	-0.098162452	0.88033258	0.053756497	0.13095256	0.15988632	0.1764722	-0.0031977233	0.88909337	0.093890508	0.038688361	0.064671731	0.22060293	-0.050511219	0.81179147	0.031219913	0.083614381	0.48447647	0.41749231	-0.12427406	0.88071521	0.50902127	0.18261692	0.48727058	0.40250819	0.00083132282	0.86626158	0.4939895	0.058319872	0.60637978	0.80935993	-0.12534668	0.63998931	0.83425152	0.24643093	0.70161499	0.88914266	-0.076629981	0.70848408	0.91980319	0.16623392	0.53917498	0.95954187	0.048260706	0.71531661	1.3586171	-0.10800287	0.65593514	1.3704901	0.2188264	0.61681266	1.4124184	0.044313087	0.56648116	1.0295708	-0.20135643	0.47598237	1.0589495	0.28212416	0.70068588	0.79842969	-0.19650049	0.54518777	0.80023718	0.3359712
322	1.284	0.18225511	0.042102175	-0.034745141	1.0292405	0.04039704	0.093300626	0.14037093	0.18895025	-0.098575246	0.88032656	0.053808325	0.13091261	0.16795977	0.18073034	-0.0036327335	0.88910473	0.093851576	0.038604117	0.073832267	0.22697917	-0.05101558	0.81172038	0.031208986	0.083657198	0.49618087	0.41617052	-0.12455015	0.88567647	0.50904739	0.18252008	0.49882755	0.40130433	0.00068421942	0.87038078	0.49408269	0.05814075	0.61252054	0.8095682	-0.12452153	0.64635368	0.83501772	0.24706855	0.70751551	0.88984053	-0.076030505	0.71436858	0.92039317	0.16681673	0.54411564	0.96029053	0.048871547	0.72159301	1.3590257	-0.10781209	0.66245386	1.3712685	0.21917977	0.62305879	1.4131444	0.04466936	0.57243725	1.0301533	-0.20083703	0.48255162	1.059788	0.28337532	0.70576971	0.79851182	-0.19629425	0.55270398	0.80090608	0.33637037
323	1.288	0.18777095	0.045564372	-0.035960896	1.0292577	0.040330176	0.093246943	0.14897274	0.19375844	-0.098865015	0.88034498	0.053858863	0.13090072	0.17630142	0.18501924	-0.0039835714	0.88919804	0.093805645	0.038546693	0.083201265	0.23321895	-0.051283951	0.81167903	0.031197231	0.083705881	0.50798015	0.4149642	-0.12471176	0.89032616	0.50903217	0.1824474	0.51047768	0.40020485	0.00063720865	0.87425718	0.49411716	0.058007223	0.61854472	0.80985459	-0.12376544	0.65258524	0.83588184	0.24767432	0.71334781	0.89059323	-0.075456998	0.72017778	0.92107208	0.16735845	0.54944071	0.96111631	0.049376351	0.72771206	1.359523	-0.10761215	0.66895212	1.3720943	0.21951354	0.62926431	1.413942	0.045045567	0.57831937	1.0307787	-0.20030607	0.48900414	1.0607812	0.28477284	0.710906	0.79870445	-0.19599332	0.56034087	0.8016853	0.33677763
324	1.292	0.19388698	0.049289154	-0.037302424	1.0292964	0.040276469	0.093199114	0.15774971	0.19869888	-0.099080199	0.8804015	0.053905277	0.13088927	0.18492226	0.18931317	-0.0042587153	0.88938194	0.093761624	0.038493461	0.092761936	0.23929121	-0.051341141	0.81166933	0.031192797	0.083743709	0.51985419	0.41389201	-0.12477574	0.89463286	0.50897043	0.18234808	0.52215485	0.39925006	0.00066053928	0.87791812	0.49410159	0.057903641	0.62450742	0.81021848	-0.12307498	0.65866133	0.83684627	0.24824197	0.71911372	0.89140152	-0.074914096	0.72592353	0.92184498	0.16785136	0.55509184	0.96198823	0.049837272	0.73366085	1.3601202	-0.10738959	0.67540417	1.3729787	0.21983138	0.63543597	1.4148117	0.045433373	0.58412982	1.0314566	-0.19976791	0.49544245	1.0618093	0.28616732	0.71601529	0.79898588	-0.19568988	0.56808002	0.80255018	0.33717784
325	1.296	0.20060394	0.053239669	-0.038788681	1.029352	0.040230049	0.093129902	0.16671497	0.20374035	-0.099236258	0.88049222	0.053944077	0.13086247	0.19385384	0.19355831	-0.0044830584	0.88963153	0.093730392	0.038433481	0.10251846	0.24517975	-0.051225595	0.81168141	0.031195417	0.083756731	0.53178648	0.41295566	-0.12475021	0.89861845	0.50886822	0.1822056	0.53388001	0.39843174	0.00069738692	0.88139017	0.49406841	0.057848325	0.63043462	0.81066381	-0.12244674	0.66456223	0.83790254	0.24876959	0.72480555	0.89226574	-0.074416866	0.73161454	0.92271208	0.16828881	0.56088203	0.962904	0.050272336	0.73946593	1.3608178	-0.10717328	0.68180363	1.3739263	0.22013492	0.64158669	1.4157499	0.045808414	0.58986316	1.0321913	-0.19922777	0.50189559	1.0627865	0.28744968	0.72100087	0.79932479	-0.19549903	0.57583766	0.80347391	0.33753586
326	1.3	0.20792071	0.057361378	-0.04039579	1.0294083	0.040187342	0.093047771	0.17594089	0.20878963	-0.099344312	0.88059448	0.053969934	0.13082067	0.20314126	0.19769393	-0.0046857242	0.88990594	0.093712293	0.038369872	0.11248024	0.25087721	-0.050980799	0.81169952	0.031198004	0.083741944	0.543775	0.41215078	-0.12463345	0.90233228	0.50872926	0.18203498	0.54574682	0.39770054	0.00072670151	0.88468645	0.49403343	0.057875538	0.63631717	0.81118988	-0.12188431	0.67027257	0.8390335	0.24926353	0.73041644	0.89319059	-0.073971616	0.73725191	0.92367526	0.16867283	0.56669045	0.96390562	0.050685564	0.74515325	1.3616137	-0.10699137	0.68816163	1.3749346	0.22042142	0.64772054	1.4167509	0.046147155	0.59550415	1.0329869	-0.19866851	0.50833181	1.0637124	0.28861132	0.7258668	0.79972951	-0.19541545	0.58355994	0.8044543	0.33783647
327	1.304	0.21584809	0.061607636	-0.042064835	1.0294494	0.040149459	0.092972532	0.18553802	0.21376574	-0.099443882	0.88067973	0.053978686	0.13077572	0.21278869	0.20170043	-0.0048753719	0.8901644	0.093698191	0.038313305	0.12264531	0.25637944	-0.050646268	0.81170715	0.03119427	0.083711064	0.5558293	0.41148194	-0.12442224	0.90583134	0.50854881	0.18188318	0.55776014	0.3970475	0.00082116073	0.88782942	0.49398699	0.057985755	0.64212915	0.8117862	-0.12138949	0.67578217	0.84021765	0.24973144	0.73594991	0.89418539	-0.073570527	0.74283553	0.92473869	0.16901554	0.57246539	0.96502704	0.051077883	0.75073448	1.3625036	-0.10685464	0.69448977	1.3760027	0.22068748	0.65380085	1.4178215	0.046449755	0.60103256	1.0338466	-0.1980749	0.51474234	1.0646473	0.28969458	0.73070537	0.80024305	-0.1953278	0.59123421	0.80550277	0.33808507
328	1.308	0.22439842	0.065938403	-0.043747397	1.0294638	0.040120101	0.092914099	0.19558298	0.21865391	-0.099570494	0.88072969	0.053971663	0.13074052	0.2227226	0.20561618	-0.0050403591	0.89037945	0.09368039	0.038273063	0.13299899	0.26167843	-0.050261035	0.81169172	0.031184065	0.083680364	0.56795185	0.41096573	-0.12411863	0.90917006	0.50832443	0.18181463	0.56980375	0.39651838	0.0010823981	0.89086661	0.49391843	0.058142135	0.64787273	0.81243716	-0.12095905	0.6810897	0.8414373	0.25017289	0.74141702	0.89525625	-0.073201102	0.74836742	0.9259014	0.16933142	0.57818083	0.96625928	0.051445511	0.75621663	1.3634844	-0.10676127	0.70079265	1.3771339	0.22093103	0.65977578	1.4189747	0.04673945	0.60643969	1.0347752	-0.19745774	0.52114129	1.0656489	0.29074178	0.73559472	0.80089782	-0.19514752	0.59886861	0.8066287	0.33829177
329	1.312	0.23355142	0.070301041	-0.045429808	1.0294453	0.040101873	0.092869561	0.20607574	0.22347198	-0.099731359	0.88074032	0.053956172	0.13071974	0.2328766	0.20948127	-0.005180286	0.89054054	0.093661733	0.038252497	0.14352276	0.2667545	-0.049871537	0.81164738	0.031172327	0.083656076	0.58012334	0.41062371	-0.12373526	0.91238978	0.50806237	0.18186577	0.58178056	0.39615525	0.0015394717	0.8938483	0.4938322	0.058313784	0.65358536	0.81313292	-0.12058732	0.68620776	0.84268686	0.25058145	0.74682999	0.89640445	-0.072852229	0.75384673	0.92715082	0.16963006	0.58382726	0.96757466	0.051785345	0.76161173	1.3645552	-0.10670372	0.70706488	1.3783329	0.22115173	0.66562536	1.420219	0.047044444	0.61174417	1.0357825	-0.19682849	0.52753087	1.0667348	0.2917778	0.74055922	0.80169029	-0.19485639	0.60647722	0.80783599	0.33846579
330	1.316	0.24324527	0.074627931	-0.047107455	1.0293932	0.040093352	0.092832068	0.21691775	0.22819411	-0.099906117	0.88071403	0.053940533	0.1307095	0.24326422	0.21328672	-0.0053152389	0.89064894	0.093651188	0.038248313	0.15419784	0.2715788	-0.049523328	0.81157529	0.031162891	0.083631808	0.59231323	0.41047337	-0.12329481	0.91552043	0.50776623	0.1820218	0.59367425	0.39596665	0.0021451585	0.89680936	0.49374385	0.058492591	0.659304	0.81388022	-0.12026669	0.69116442	0.84397205	0.25095263	0.75219574	0.89763017	-0.072516524	0.75926889	0.9284638	0.1699172	0.5893985	0.96895644	0.052100662	0.76693819	1.3657135	-0.10667231	0.71329246	1.3796014	0.22134971	0.67136728	1.4215506	0.047377716	0.61697438	1.036874	-0.19617628	0.53390514	1.0678949	0.29280996	0.74557898	0.80259147	-0.1944811	0.6140676	0.80912288	0.33861459
